<svg width="630" height="489" viewBox="0 0 630 489" fill="none" xmlns="http://www.w3.org/2000/svg">
<path d="M405.908 100.228H60.5656C33.907 100.228 12.5393 78.6569 12.5393 52.2017V48.9456C12.5393 22.287 34.1105 0.919312 60.5656 0.919312H405.908C432.566 0.919312 453.934 22.4905 453.934 48.9456V52.2017C454.137 78.8604 432.566 100.228 405.908 100.228Z" fill="#F0F0EE"/>
<path d="M556.905 183.664H211.563C184.904 183.664 163.537 162.092 163.537 135.637V132.381C163.537 105.723 185.108 84.3549 211.563 84.3549H556.905C583.564 84.3549 604.931 105.926 604.931 132.381V135.637C604.931 162.092 583.36 183.664 556.905 183.664Z" fill="#F0F0EE"/>
<path d="M393.494 258.552H48.1518C21.4931 258.552 0.125488 236.981 0.125488 210.526V207.27C0.125488 180.611 21.6966 159.243 48.1518 159.243H393.494C420.152 159.243 441.52 180.815 441.52 207.27V210.526C441.724 236.981 420.152 258.552 393.494 258.552Z" fill="#F0F0EE"/>
<path d="M425.444 350.128H79.8982C53.2395 350.128 31.8718 328.557 31.8718 302.101V298.845C31.8718 272.187 53.443 250.819 79.8982 250.819H425.24C451.899 250.819 473.266 272.39 473.266 298.845V302.101C473.47 328.557 451.899 350.128 425.444 350.128Z" fill="#F0F0EE"/>
<path d="M545.509 397.34H200.167C173.509 397.34 152.141 375.769 152.141 349.314V346.058C152.141 319.399 173.712 298.031 200.167 298.031H545.509C572.168 298.031 593.536 319.602 593.536 346.058V349.314C593.739 375.769 572.168 397.34 545.509 397.34Z" fill="#F0F0EE"/>
<path d="M454.544 481.997H108.998C82.3397 481.997 60.972 460.425 60.972 433.97V430.714C60.972 404.055 82.5432 382.688 108.998 382.688H454.544C481.202 382.688 502.57 404.259 502.57 430.714V433.97C502.57 460.425 480.999 481.997 454.544 481.997Z" fill="#F0F0EE"/>
<path d="M359.305 328.353H255.723V461.239H359.305V328.353Z" fill="#8A8D91"/>
<path d="M359.305 328.353H255.723V461.239H359.305V328.353Z" fill="white" stroke="#2F323A" stroke-miterlimit="10" stroke-linecap="round" stroke-linejoin="round"/>
<path d="M514.577 343.412H100.451C90.0729 343.412 81.7294 335.069 81.7294 324.69V45.2826C81.7294 34.9041 90.0729 26.5605 100.451 26.5605H514.78C525.159 26.5605 533.502 34.9041 533.502 45.2826V324.894C533.299 335.069 524.955 343.412 514.577 343.412Z" fill="white" stroke="#2F323A" stroke-miterlimit="10" stroke-linecap="round" stroke-linejoin="round"/>
<path d="M100.451 26.5605H514.78C525.159 26.5605 533.502 34.9041 533.502 45.2826V311.666H81.7294V45.2826C81.7294 34.9041 90.0729 26.5605 100.451 26.5605Z" fill="#2F323A"/>
<path d="M507.658 52.4052H110.017V285.007H507.658V52.4052Z" fill="white"/>
<path d="M381.284 461.239H233.948V483.625H381.284V461.239Z" fill="white" stroke="#2F323A" stroke-miterlimit="10" stroke-linecap="round" stroke-linejoin="round"/>
<path d="M117.343 84.3548H113.476C105.743 84.3548 99.4344 78.0463 99.4344 70.3132V43.858H131.384V70.3132C131.588 78.0463 125.279 84.3548 117.343 84.3548Z" fill="#5CDDBC"/>
<path d="M181.445 84.3548H177.579C169.846 84.3548 163.537 78.0463 163.537 70.3132V43.858H195.487V70.3132C195.487 78.0463 189.382 84.3548 181.445 84.3548Z" fill="#5CDDBC"/>
<path d="M149.496 84.3548H145.629C137.896 84.3548 131.587 78.0463 131.587 70.3132V43.858H163.537V70.3132C163.537 78.0463 157.229 84.3548 149.496 84.3548Z" fill="#1EBA7B"/>
<path d="M245.549 84.3548H241.682C233.949 84.3548 227.641 78.0463 227.641 70.3132V43.858H259.59V70.3132C259.59 78.0463 253.282 84.3548 245.549 84.3548Z" fill="#5CDDBC"/>
<path d="M213.599 84.3548H209.732C201.999 84.3548 195.691 78.0463 195.691 70.3132V43.858H227.64V70.3132C227.64 78.0463 221.332 84.3548 213.599 84.3548Z" fill="#1EBA7B"/>
<path d="M309.652 84.3548H305.785C298.052 84.3548 291.744 78.0463 291.744 70.3132V43.858H323.693V70.3132C323.693 78.0463 317.385 84.3548 309.652 84.3548Z" fill="#5CDDBC"/>
<path d="M277.702 84.3548H273.835C266.102 84.3548 259.793 78.0463 259.793 70.3132V43.858H291.743V70.3132C291.743 78.0463 285.435 84.3548 277.702 84.3548Z" fill="#1EBA7B"/>
<path d="M323.897 41.2125H99.4344V43.858H323.897V41.2125Z" fill="#1EBA7B"/>
<path d="M373.145 84.3548H369.278C361.545 84.3548 355.237 78.0463 355.237 70.3132V43.858H387.186V70.3132C387.186 78.0463 380.878 84.3548 373.145 84.3548Z" fill="#5CDDBC"/>
<path d="M341.195 84.3548H337.328C329.595 84.3548 323.287 78.0463 323.287 70.3132V43.858H355.237V70.3132C355.237 78.0463 348.928 84.3548 341.195 84.3548Z" fill="#1EBA7B"/>
<path d="M437.248 84.3548H433.381C425.648 84.3548 419.339 78.0463 419.339 70.3132V43.858H451.289V70.3132C451.289 78.0463 444.981 84.3548 437.248 84.3548Z" fill="#5CDDBC"/>
<path d="M405.297 84.3548H401.431C393.698 84.3548 387.389 78.0463 387.389 70.3132V43.858H419.339V70.3132C419.339 78.0463 413.03 84.3548 405.297 84.3548Z" fill="#1EBA7B"/>
<path d="M501.35 84.3548H497.484C489.751 84.3548 483.442 78.0463 483.442 70.3132V43.858H515.392V70.3132C515.392 78.0463 509.083 84.3548 501.35 84.3548Z" fill="#5CDDBC"/>
<path d="M469.196 84.3548H465.33C457.597 84.3548 451.288 78.0463 451.288 70.3132V43.858H483.238V70.3132C483.442 78.0463 477.133 84.3548 469.196 84.3548Z" fill="#1EBA7B"/>
<path d="M515.596 41.2125H291.134V43.858H515.596V41.2125Z" fill="#1EBA7B"/>
<path d="M182.548 126.931H177.704C177.418 125.538 176.917 124.314 176.201 123.26C175.497 122.205 174.638 121.319 173.622 120.603C172.62 119.874 171.506 119.327 170.283 118.963C169.059 118.598 167.783 118.416 166.454 118.416C164.033 118.416 161.839 119.028 159.872 120.252C157.919 121.476 156.363 123.279 155.204 125.662C154.059 128.045 153.486 130.968 153.486 134.431C153.486 137.895 154.059 140.818 155.204 143.201C156.363 145.584 157.919 147.387 159.872 148.611C161.839 149.835 164.033 150.447 166.454 150.447C167.783 150.447 169.059 150.265 170.283 149.9C171.506 149.536 172.62 148.995 173.622 148.279C174.638 147.55 175.497 146.658 176.201 145.603C176.917 144.536 177.418 143.312 177.704 141.931H182.548C182.184 143.976 181.52 145.805 180.556 147.42C179.592 149.034 178.395 150.408 176.962 151.541C175.53 152.661 173.922 153.513 172.138 154.099C170.367 154.685 168.473 154.978 166.454 154.978C163.043 154.978 160.009 154.145 157.353 152.478C154.697 150.812 152.607 148.442 151.083 145.369C149.56 142.296 148.798 138.65 148.798 134.431C148.798 130.213 149.56 126.567 151.083 123.494C152.607 120.421 154.697 118.051 157.353 116.385C160.009 114.718 163.043 113.885 166.454 113.885C168.473 113.885 170.367 114.178 172.138 114.763C173.922 115.349 175.53 116.209 176.962 117.342C178.395 118.461 179.592 119.829 180.556 121.443C181.52 123.045 182.184 124.874 182.548 126.931ZM189.75 154.431V124.431H194.36V137.478H197.407L208.188 124.431H214.125L202.016 138.885L214.282 154.431H208.344L198.5 141.775H194.36V154.431H189.75ZM223.901 147.635L238.354 124.431H243.666V154.431H239.057V131.228L224.682 154.431H219.291V124.431H223.901V147.635ZM248.906 163.025V150.135H251.406C252.018 149.497 252.545 148.806 252.988 148.064C253.43 147.322 253.814 146.443 254.14 145.428C254.478 144.399 254.765 143.149 254.999 141.678C255.234 140.193 255.442 138.403 255.624 136.306L256.64 124.431H275.702V150.135H280.312V163.025H275.702V154.431H253.515V163.025H248.906ZM256.64 150.135H271.093V128.728H260.937L260.156 136.306C259.83 139.444 259.426 142.185 258.945 144.529C258.463 146.873 257.695 148.741 256.64 150.135ZM286.43 154.431V124.431H291.039V137.478H294.086L304.867 124.431H310.805L298.696 138.885L310.961 154.431H305.024L295.18 141.775H291.039V154.431H286.43ZM320.58 147.635L335.034 124.431H340.346V154.431H335.737V131.228L321.362 154.431H315.971V124.431H320.58V147.635ZM376.679 154.978C374.387 154.978 372.324 154.523 370.488 153.611C368.652 152.7 367.18 151.45 366.074 149.861C364.967 148.273 364.361 146.463 364.257 144.431H368.945C369.127 146.241 369.947 147.739 371.406 148.924C372.877 150.095 374.635 150.681 376.679 150.681C378.32 150.681 379.778 150.297 381.054 149.529C382.343 148.761 383.352 147.706 384.081 146.365C384.824 145.011 385.195 143.481 385.195 141.775C385.195 140.03 384.811 138.474 384.042 137.107C383.287 135.727 382.245 134.64 380.917 133.845C379.589 133.051 378.072 132.648 376.367 132.635C375.143 132.622 373.886 132.81 372.597 133.201C371.308 133.579 370.247 134.067 369.413 134.666L364.882 134.119L367.304 114.431H388.085V118.728H371.367L369.96 130.525H370.195C371.015 129.874 372.044 129.334 373.281 128.904C374.518 128.474 375.807 128.26 377.148 128.26C379.596 128.26 381.777 128.845 383.691 130.017C385.618 131.176 387.128 132.765 388.222 134.783C389.329 136.801 389.882 139.106 389.882 141.697C389.882 144.249 389.309 146.528 388.163 148.533C387.031 150.525 385.468 152.101 383.476 153.26C381.484 154.405 379.218 154.978 376.679 154.978ZM410.688 154.978C407.745 154.978 405.239 154.178 403.168 152.576C401.098 150.961 399.516 148.624 398.422 145.564C397.328 142.491 396.782 138.78 396.782 134.431C396.782 130.109 397.328 126.417 398.422 123.357C399.529 120.284 401.117 117.941 403.188 116.326C405.271 114.698 407.771 113.885 410.688 113.885C413.604 113.885 416.098 114.698 418.168 116.326C420.252 117.941 421.84 120.284 422.934 123.357C424.041 126.417 424.594 130.109 424.594 134.431C424.594 138.78 424.047 142.491 422.953 145.564C421.86 148.624 420.278 150.961 418.207 152.576C416.137 154.178 413.631 154.978 410.688 154.978ZM410.688 150.681C413.604 150.681 415.87 149.275 417.485 146.463C419.099 143.65 419.907 139.64 419.907 134.431C419.907 130.968 419.535 128.019 418.793 125.584C418.064 123.149 417.009 121.293 415.629 120.017C414.262 118.741 412.615 118.103 410.688 118.103C407.797 118.103 405.538 119.529 403.91 122.381C402.283 125.219 401.469 129.236 401.469 134.431C401.469 137.895 401.834 140.838 402.563 143.26C403.292 145.681 404.34 147.524 405.707 148.787C407.088 150.05 408.748 150.681 410.688 150.681ZM452.407 146.931V144.822C452.407 143.364 452.706 142.029 453.305 140.818C453.917 139.594 454.802 138.618 455.961 137.888C457.133 137.146 458.552 136.775 460.219 136.775C461.912 136.775 463.331 137.146 464.477 137.888C465.623 138.618 466.489 139.594 467.075 140.818C467.66 142.029 467.953 143.364 467.953 144.822V146.931C467.953 148.39 467.654 149.731 467.055 150.955C466.469 152.166 465.597 153.142 464.438 153.885C463.292 154.614 461.886 154.978 460.219 154.978C458.526 154.978 457.101 154.614 455.942 153.885C454.783 153.142 453.904 152.166 453.305 150.955C452.706 149.731 452.407 148.39 452.407 146.931ZM456.391 144.822V146.931C456.391 148.142 456.677 149.23 457.25 150.193C457.823 151.144 458.813 151.619 460.219 151.619C461.586 151.619 462.55 151.144 463.11 150.193C463.683 149.23 463.969 148.142 463.969 146.931V144.822C463.969 143.611 463.696 142.53 463.149 141.58C462.602 140.616 461.625 140.135 460.219 140.135C458.852 140.135 457.869 140.616 457.27 141.58C456.684 142.53 456.391 143.611 456.391 144.822ZM432.485 124.041V121.931C432.485 120.473 432.784 119.138 433.383 117.928C433.995 116.704 434.881 115.727 436.039 114.998C437.211 114.256 438.631 113.885 440.297 113.885C441.99 113.885 443.409 114.256 444.555 114.998C445.701 115.727 446.567 116.704 447.153 117.928C447.739 119.138 448.032 120.473 448.032 121.931V124.041C448.032 125.499 447.732 126.84 447.133 128.064C446.547 129.275 445.675 130.252 444.516 130.994C443.37 131.723 441.964 132.088 440.297 132.088C438.604 132.088 437.179 131.723 436.02 130.994C434.861 130.252 433.982 129.275 433.383 128.064C432.784 126.84 432.485 125.499 432.485 124.041ZM436.469 121.931V124.041C436.469 125.252 436.756 126.339 437.328 127.303C437.901 128.253 438.891 128.728 440.297 128.728C441.664 128.728 442.628 128.253 443.188 127.303C443.761 126.339 444.047 125.252 444.047 124.041V121.931C444.047 120.72 443.774 119.64 443.227 118.689C442.68 117.726 441.703 117.244 440.297 117.244C438.93 117.244 437.947 117.726 437.348 118.689C436.762 119.64 436.469 120.72 436.469 121.931ZM433.969 154.431L461.469 114.431H465.922L438.422 154.431H433.969Z" fill="#B2BAC1"/>
<path d="M215.634 191.193H166.59V240.237H215.634V191.193Z" fill="#5CDDBC"/>
<path d="M284.011 203.403H231.101C229.473 203.403 228.048 201.979 228.048 200.351C228.048 198.723 229.473 197.298 231.101 197.298H284.011C285.639 197.298 287.064 198.723 287.064 200.351C287.064 201.979 285.639 203.403 284.011 203.403Z" fill="#5CDDBC"/>
<path d="M284.011 219.073H231.101C229.473 219.073 228.048 217.648 228.048 216.02C228.048 214.392 229.473 212.968 231.101 212.968H284.011C285.639 212.968 287.064 214.392 287.064 216.02C287.064 217.648 285.639 219.073 284.011 219.073Z" fill="#5CDDBC"/>
<path d="M258.777 234.539H231.304C229.676 234.539 228.252 233.114 228.252 231.486C228.252 229.858 229.676 228.434 231.304 228.434H258.777C260.405 228.434 261.83 229.858 261.83 231.486C261.83 233.114 260.405 234.539 258.777 234.539Z" fill="#5CDDBC"/>
<path d="M377.01 191.193H327.966V240.237H377.01V191.193Z" fill="#5CDDBC"/>
<path d="M445.183 203.403H392.273C390.645 203.403 389.22 201.979 389.22 200.351C389.22 198.723 390.645 197.298 392.273 197.298H445.183C446.811 197.298 448.236 198.723 448.236 200.351C448.439 201.979 447.014 203.403 445.183 203.403Z" fill="#5CDDBC"/>
<path d="M445.183 219.073H392.273C390.645 219.073 389.22 217.648 389.22 216.02C389.22 214.392 390.645 212.968 392.273 212.968H445.183C446.811 212.968 448.236 214.392 448.236 216.02C448.439 217.648 447.015 219.073 445.183 219.073Z" fill="#5CDDBC"/>
<path d="M419.95 234.539H392.477C390.849 234.539 389.424 233.114 389.424 231.486C389.424 229.858 390.849 228.434 392.477 228.434H419.95C421.578 228.434 423.002 229.858 423.002 231.486C423.002 233.114 421.781 234.539 419.95 234.539Z" fill="#5CDDBC"/>
<path d="M604.931 351.145H516.001V483.014H604.931V351.145Z" fill="white" stroke="#2F323A" stroke-miterlimit="10" stroke-linecap="round" stroke-linejoin="round"/>
<path d="M571.557 352.366H549.376V481.59H571.557V352.366Z" fill="#5CDDBC"/>
<path d="M610.63 335.476H510.304V366.611H610.63V335.476Z" fill="white" stroke="#2F323A" stroke-miterlimit="10" stroke-linecap="round" stroke-linejoin="round"/>
<path d="M542.66 408.94H468.789V482.811H542.66V408.94Z" fill="white" stroke="#2F323A" stroke-miterlimit="10" stroke-linecap="round" stroke-linejoin="round"/>
<path d="M541.979 455.146V436.628H469.737V455.146H541.979Z" fill="#5CDDBC"/>
<path d="M547.544 400.393H464.109V417.894H547.544V400.393Z" fill="white" stroke="#2F323A" stroke-miterlimit="10" stroke-linecap="round" stroke-linejoin="round"/>
<path d="M441.722 148.051H402.243V208.491H441.722V148.051Z" fill="#5CDDBC"/>
<path d="M441.926 149.272C441.926 151.103 441.722 152.935 441.112 154.563C438.873 162.906 431.14 169.011 421.983 169.011C410.994 169.011 402.243 160.057 402.243 149.272C402.243 148.458 402.243 147.847 402.446 147.033C403.057 142.353 405.092 138.283 408.348 135.027C410.383 132.992 412.825 131.567 415.674 130.55C417.709 129.736 419.948 129.532 422.186 129.532C423.407 129.532 424.425 129.532 425.442 129.736C425.646 129.736 425.646 129.736 425.849 129.736C426.053 129.736 426.256 129.736 426.46 129.939C435.21 131.771 441.926 139.707 441.926 149.272Z" fill="#5CDDBC"/>
<path d="M417.709 206.456C417.505 207.27 417.302 207.88 416.895 208.694L394.713 258.552C392.475 263.639 386.777 266.489 381.282 265.268L352.385 258.755L356.862 238.812L377.009 240.033L395.324 199.13C397.969 193.228 404.888 190.582 410.993 193.228C416.284 195.467 418.93 201.165 417.709 206.456Z" fill="#2F323A" stroke="#2F323A" stroke-miterlimit="10"/>
<path d="M320.639 253.057C321.25 252.65 321.657 252.447 322.267 252.04L352.589 258.756L357.066 238.812L325.93 236.981C323.895 232.911 319.825 230.062 314.941 230.062C308.225 230.062 302.731 235.556 302.731 242.272C302.731 248.987 308.225 254.482 314.941 254.482C316.976 254.482 319.011 254.075 320.639 253.057Z" fill="white" stroke="#2F323A" stroke-miterlimit="10" stroke-linecap="round" stroke-linejoin="round"/>
<path d="M466.16 415.797L453.311 424.764L463.444 439.282L476.293 430.315L466.16 415.797Z" fill="white" stroke="#2F323A" stroke-miterlimit="10" stroke-linecap="round" stroke-linejoin="round"/>
<path d="M493.412 441.296L437.856 480.165L436.024 477.519L455.968 438.651L478.556 422.981L493.412 441.296Z" fill="#2F323A"/>
<path d="M447.42 452.285L459.63 450.657" stroke="white" stroke-miterlimit="10"/>
<path d="M445.385 457.169L456.578 455.745" stroke="white" stroke-miterlimit="10"/>
<path d="M442.943 462.053L451.49 461.443" stroke="white" stroke-miterlimit="10"/>
<path d="M491.988 439.261L436.432 478.13" stroke="white" stroke-miterlimit="10"/>
<path d="M472.857 421.353L453.728 434.581L416.691 396.323L408.551 387.979L381.689 360.506L422.796 320.009L434.803 342.598L441.111 354.401L472.857 421.353Z" fill="white" stroke="#2F323A" stroke-miterlimit="10" stroke-linecap="round" stroke-linejoin="round"/>
<path d="M441.111 354.401L416.691 396.323L408.551 387.979L434.803 342.598L441.111 354.401Z" fill="#2F323A"/>
<path d="M453.526 223.346L451.898 231.486L442.537 276.664H396.545L395.731 244.714C387.795 230.062 391.661 219.073 397.563 209.508L408.755 190.99H434.6C442.74 190.99 447.421 194.246 449.863 199.537C450.677 201.368 451.491 203.403 451.898 205.642C453.322 210.729 453.526 216.834 453.526 223.346Z" fill="#2F323A"/>
<path d="M510.098 209.915L488.324 236.37C486.085 239.016 483.033 240.644 479.777 240.847C479.37 240.847 478.963 240.847 478.556 240.847C475.503 240.847 472.654 239.83 470.416 237.795L443.35 215.003C440.297 212.561 438.873 208.898 438.873 205.235C438.873 202.386 439.89 199.537 441.925 197.095C446.402 191.803 454.542 190.989 459.833 195.67L477.131 210.119L496.26 191.6L510.098 209.915Z" fill="#2F323A"/>
<path d="M551.002 166.162C549.985 165.145 548.357 165.145 547.339 166.162L542.252 171.25C542.252 171.046 542.252 171.046 542.252 170.843L550.392 162.906C551.613 161.685 551.613 159.854 550.392 158.633C549.171 157.412 547.339 157.412 546.118 158.633L539.606 165.145C539.606 165.145 539.606 165.145 539.606 164.941L548.764 155.784C549.985 154.563 549.985 152.731 548.764 151.51C547.543 150.289 545.711 150.289 544.49 151.51L534.722 161.278H534.519L542.455 153.342C543.676 152.121 543.676 150.289 542.455 149.068C541.234 147.847 539.403 147.847 538.182 149.068L526.786 160.464C520.477 161.482 515.797 166.976 515.593 173.488L496.464 192.007L510.709 209.915L529.228 187.53C529.635 187.53 530.245 187.53 530.652 187.53C535.536 187.123 551.613 170.029 551.613 170.029C552.02 169.011 552.02 167.383 551.002 166.162Z" fill="white" stroke="#2F323A" stroke-miterlimit="10" stroke-linecap="round" stroke-linejoin="round"/>
<path d="M584.174 201.368H533.706C531.06 201.368 528.822 199.13 528.822 196.484V160.871C528.822 158.226 531.06 155.987 533.706 155.987H584.174C586.82 155.987 589.058 158.226 589.058 160.871V196.484C589.058 199.13 586.82 201.368 584.174 201.368Z" fill="#2F323A"/>
<path d="M589.058 167.587H528.822V174.71H589.058V167.587Z" fill="white"/>
<path d="M528.822 163.313H589.058" stroke="#5CDDBC" stroke-miterlimit="10"/>
<path d="M554.462 192.414H533.298V195.06H554.462V192.414Z" fill="white"/>
<path d="M561.584 192.414H556.09V195.06H561.584V192.414Z" fill="white"/>
<path d="M583.97 192.414H578.475V195.06H583.97V192.414Z" fill="white"/>
<path d="M583.97 178.983H578.475V181.628H583.97V178.983Z" fill="white"/>
<path d="M543.88 178.983H533.298V181.628H543.88V178.983Z" fill="white"/>
<path d="M524.752 170.029C526.176 172.878 529.636 173.895 532.485 172.471C535.13 171.25 536.148 168.197 535.334 165.552L540.218 163.11C541.846 162.296 542.456 160.261 541.642 158.633C540.828 157.005 538.793 156.394 537.165 157.208L527.194 162.092" fill="white"/>
<path d="M524.752 170.029C526.176 172.878 529.636 173.895 532.485 172.471C535.13 171.25 536.148 168.197 535.334 165.552L540.218 163.11C541.846 162.296 542.456 160.261 541.642 158.633C540.828 157.005 538.793 156.394 537.165 157.208L527.194 162.092" stroke="#2F323A" stroke-miterlimit="10" stroke-linecap="round" stroke-linejoin="round"/>
<path d="M442.943 155.173C444.775 156.801 444.164 160.261 441.722 162.703C439.28 165.348 436.024 166.162 434.193 164.534C432.361 162.906 432.972 159.447 435.414 157.005C437.856 154.359 441.112 153.749 442.943 155.173Z" fill="white" stroke="#2F323A" stroke-miterlimit="10" stroke-linecap="round" stroke-linejoin="round"/>
<path d="M440.501 158.226L436.635 162.092" stroke="#2F323A" stroke-miterlimit="10" stroke-linecap="round" stroke-linejoin="round"/>
<path d="M400.412 156.191C398.58 157.819 399.191 161.278 401.633 163.72C404.075 166.366 407.331 167.18 409.162 165.552C410.994 163.924 410.383 160.464 407.941 158.022C405.499 155.377 402.04 154.563 400.412 156.191Z" fill="white" stroke="#2F323A" stroke-miterlimit="10" stroke-linecap="round" stroke-linejoin="round"/>
<path d="M402.447 159.447L406.11 162.703" stroke="#2F323A" stroke-miterlimit="10" stroke-linecap="round" stroke-linejoin="round"/>
<path d="M424.221 205.845C417.913 205.845 413.029 200.758 413.029 194.653V164.738H435.617V194.653C435.617 200.758 430.53 205.845 424.221 205.845Z" fill="white" stroke="#2F323A" stroke-miterlimit="10" stroke-linecap="round" stroke-linejoin="round"/>
<path d="M435.617 165.552V169.215C435.617 179.187 429.716 187.327 422.39 187.327H418.116C416.285 187.327 414.657 186.92 413.029 185.902V176.134C415.064 177.559 417.506 178.576 420.151 178.576C426.663 178.576 432.158 173.285 434.396 165.552H435.617Z" fill="#2F323A"/>
<path d="M420.761 135.434C411.4 135.434 403.87 142.963 403.87 152.324V167.587C403.87 175.727 410.382 182.239 418.522 182.239C429.104 182.239 437.652 173.692 437.652 163.11V152.528C437.652 142.963 430.122 135.434 420.761 135.434Z" fill="white" stroke="#2F323A" stroke-miterlimit="10" stroke-linecap="round" stroke-linejoin="round"/>
<path d="M438.466 144.184C436.024 138.893 432.361 134.823 427.884 131.974C427.681 131.974 427.477 131.974 427.274 131.771C427.07 131.771 427.07 131.771 426.867 131.771C425.646 131.567 424.628 131.567 423.407 131.567C420.965 131.567 418.727 131.974 416.488 132.788H416.285C415.674 132.992 415.267 133.195 414.657 133.399C414.453 133.399 414.25 133.602 414.046 133.602C413.639 133.806 413.232 134.009 412.825 134.416C412.622 134.62 412.418 134.62 412.215 134.823C411.808 135.027 411.401 135.434 410.994 135.637C410.79 135.841 410.587 135.841 410.383 136.044C409.773 136.451 409.366 136.858 408.755 137.469C405.296 140.725 403.057 145.202 402.447 150.086C403.261 150.289 403.871 150.493 404.685 150.493C408.145 150.493 410.994 148.051 413.232 143.981C420.151 151.307 430.53 154.359 440.501 151.51C440.298 148.865 439.484 146.423 438.466 144.184Z" fill="#5CDDBC"/>
<path d="M427.884 152.731H421.168" stroke="#2F323A" stroke-miterlimit="10" stroke-linecap="round" stroke-linejoin="round"/>
<path d="M413.029 152.731H406.11" stroke="#2F323A" stroke-miterlimit="10" stroke-linecap="round" stroke-linejoin="round"/>
<path d="M416.082 158.836L413.436 165.552H417.71" fill="white"/>
<path d="M416.082 158.836L413.436 165.552H417.71" stroke="#2F323A" stroke-miterlimit="10" stroke-linecap="round" stroke-linejoin="round"/>
<path d="M414.861 172.878C417.71 173.692 421.169 172.471 422.797 169.825L414.861 172.878Z" fill="white"/>
<path d="M414.861 172.878C417.71 173.692 421.169 172.471 422.797 169.825" stroke="#2F323A" stroke-miterlimit="10" stroke-linecap="round" stroke-linejoin="round"/>
<path d="M422.796 160.871C423.203 160.871 423.61 160.464 423.61 160.057V158.226C423.61 157.819 423.203 157.412 422.796 157.412C422.389 157.412 421.982 157.819 421.982 158.226V160.057C421.779 160.464 422.186 160.871 422.796 160.871Z" fill="#2F323A"/>
<path d="M421.168 157.615H425.849L427.273 156.191" fill="white"/>
<path d="M421.168 157.615H425.849L427.273 156.191" stroke="#2F323A" stroke-miterlimit="10" stroke-linecap="round" stroke-linejoin="round"/>
<path d="M409.163 160.871C409.57 160.871 409.977 160.464 409.977 160.057V158.226C409.977 157.819 409.57 157.412 409.163 157.412C408.756 157.412 408.349 157.819 408.349 158.226V160.057C408.145 160.464 408.552 160.871 409.163 160.871Z" fill="#2F323A"/>
<path d="M411.604 157.615H406.923L405.295 156.191" fill="white"/>
<path d="M411.604 157.615H406.923L405.295 156.191" stroke="#2F323A" stroke-miterlimit="10" stroke-linecap="round" stroke-linejoin="round"/>
<path d="M441.926 173.896H436.431V213.171H441.926V173.896Z" fill="#5CDDBC"/>
<path d="M373.956 445.57H358.286V463.274H373.956V445.57Z" fill="white" stroke="#2F323A" stroke-miterlimit="10" stroke-linecap="round" stroke-linejoin="round"/>
<path d="M381.69 481.997H313.924V478.944L352.385 458.594H379.858L381.69 481.997Z" fill="#2F323A"/>
<path d="M337.734 464.699L348.723 470.397" stroke="white" stroke-miterlimit="10"/>
<path d="M333.256 467.548L343.228 472.839" stroke="white" stroke-miterlimit="10"/>
<path d="M328.372 470.194L335.902 474.467" stroke="white" stroke-miterlimit="10"/>
<path d="M381.69 479.555H313.924" stroke="white" stroke-miterlimit="10"/>
<path d="M379.044 450.657H352.385L396.545 276.664H442.536C444.368 278.088 445.792 280.327 447.217 282.972C452.711 293.554 452.915 305.968 448.438 317.161C446.199 322.859 442.74 329.778 437.449 337.714L379.044 450.657Z" fill="white" stroke="#2F323A" stroke-miterlimit="10" stroke-linecap="round" stroke-linejoin="round"/>
<path d="M362.968 450.657L420.763 295.793" stroke="#5CDDBC" stroke-miterlimit="10"/>
<path d="M314.737 247.36L298.864 260.587C296.829 262.215 293.98 262.012 292.352 259.977C290.724 257.942 290.927 255.093 292.962 253.465L308.836 240.237C310.871 238.609 313.72 238.813 315.348 240.848C316.976 242.883 316.772 245.732 314.737 247.36Z" fill="#2F323A"/>
<path d="M315.755 242.475C313.11 242.882 311.278 244.917 310.668 247.359L305.173 248.377C302.731 248.784 301.307 251.022 301.714 253.261C302.121 255.703 304.359 257.128 306.598 256.721L317.383 254.889H317.587C317.79 254.889 317.79 254.889 317.994 254.889C320.029 254.482 321.657 253.261 322.471 251.633" fill="white"/>
<path d="M315.755 242.475C313.11 242.882 311.278 244.917 310.668 247.359L305.173 248.377C302.731 248.784 301.307 251.022 301.714 253.261C302.121 255.703 304.359 257.128 306.598 256.721L317.383 254.889H317.587C317.79 254.889 317.79 254.889 317.994 254.889C320.029 254.482 321.657 253.261 322.471 251.633" stroke="#2F323A" stroke-miterlimit="10" stroke-linecap="round" stroke-linejoin="round"/>
<path d="M315.755 230.062L306.19 228.027C305.376 227.823 304.562 228.027 303.748 228.434C302.324 228.637 301.103 229.858 300.899 231.486L299.068 242.882C298.661 244.917 300.085 246.749 302.12 247.156C304.155 247.563 305.987 246.139 306.394 244.103L307.615 236.167L313.109 237.388" fill="white"/>
<path d="M315.755 230.062L306.19 228.027C305.376 227.823 304.562 228.027 303.748 228.434C302.324 228.637 301.103 229.858 300.899 231.486L299.068 242.882C298.661 244.917 300.085 246.749 302.12 247.156C304.155 247.563 305.987 246.139 306.394 244.103L307.615 236.167L313.109 237.388" stroke="#2F323A" stroke-miterlimit="10" stroke-linecap="round" stroke-linejoin="round"/>
<path d="M225.604 388.793H120.801L135.453 263.436H211.155L225.604 388.793Z" fill="#5CDDBC"/>
<path d="M152.14 286.228C152.14 284.6 153.565 283.176 155.193 283.176C156.821 283.176 158.245 284.6 158.245 286.228C158.245 287.856 156.821 289.281 155.193 289.281C153.565 289.281 152.14 287.856 152.14 286.228Z" fill="white" stroke="#2F323A" stroke-miterlimit="10" stroke-linecap="round" stroke-linejoin="round"/>
<path d="M188.16 286.228C188.16 284.6 189.585 283.176 191.213 283.176C192.841 283.176 194.265 284.6 194.265 286.228C194.265 287.856 192.841 289.281 191.213 289.281C189.585 289.281 188.16 287.856 188.16 286.228Z" fill="white" stroke="#2F323A" stroke-miterlimit="10" stroke-linecap="round" stroke-linejoin="round"/>
<path d="M155.396 286.228V308.206C155.396 318.178 163.333 326.115 173.304 326.115C183.276 326.115 191.212 318.178 191.212 308.206V286.228" stroke="#2F323A" stroke-miterlimit="10" stroke-linecap="round" stroke-linejoin="round"/>
<path d="M238.222 388.793H171.677L181.038 309.224H229.064L238.222 388.793Z" fill="white" stroke="#2F323A" stroke-miterlimit="10" stroke-linecap="round" stroke-linejoin="round"/>
<path d="M191.619 323.672C191.619 322.655 192.433 321.637 193.654 321.637C194.672 321.637 195.689 322.451 195.689 323.672C195.689 324.69 194.875 325.707 193.654 325.707C192.433 325.504 191.619 324.69 191.619 323.672Z" fill="white" stroke="#2F323A" stroke-miterlimit="10" stroke-linecap="round" stroke-linejoin="round"/>
<path d="M214.411 323.672C214.411 322.655 215.225 321.637 216.446 321.637C217.464 321.637 218.481 322.451 218.481 323.672C218.481 324.69 217.667 325.707 216.446 325.707C215.225 325.504 214.411 324.69 214.411 323.672Z" fill="white" stroke="#2F323A" stroke-miterlimit="10" stroke-linecap="round" stroke-linejoin="round"/>
<path d="M193.654 323.672V337.714C193.654 344.023 198.742 349.11 205.05 349.11C211.359 349.11 216.446 344.023 216.446 337.714V323.672" stroke="#2F323A" stroke-miterlimit="10" stroke-linecap="round" stroke-linejoin="round"/>
<path d="M259.792 388.793H103.503V268.524H293.37L259.792 388.793Z" stroke="#2F323A" stroke-miterlimit="10" stroke-linecap="round" stroke-linejoin="round"/>
<path d="M295.609 260.791L259.792 388.793L268.746 452.489H123.853" stroke="#2F323A" stroke-miterlimit="10" stroke-linecap="round" stroke-linejoin="round"/>
<path d="M263.107 478.352C268.988 472.471 268.988 462.936 263.107 457.055C257.226 451.174 247.691 451.174 241.811 457.055C235.93 462.936 235.93 472.471 241.811 478.352C247.691 484.233 257.226 484.233 263.107 478.352Z" fill="#2F323A"/>
<path d="M242.292 467.751C242.292 462.257 246.769 457.78 252.263 457.78C257.758 457.78 262.235 462.257 262.235 467.751C262.235 473.246 257.758 477.723 252.263 477.723C246.972 477.723 242.292 473.246 242.292 467.751Z" fill="white" stroke="#2F323A" stroke-miterlimit="10" stroke-linecap="round" stroke-linejoin="round"/>
<path d="M155.792 471.283C157.772 463.205 152.828 455.052 144.749 453.072C136.671 451.093 128.518 456.037 126.539 464.115C124.559 472.193 129.503 480.347 137.581 482.326C145.66 484.305 153.813 479.361 155.792 471.283Z" fill="#2F323A"/>
<path d="M131.179 467.751C131.179 462.257 135.656 457.78 141.151 457.78C146.645 457.78 151.122 462.257 151.122 467.751C151.122 473.246 146.645 477.723 141.151 477.723C135.656 477.723 131.179 473.246 131.179 467.751Z" fill="white" stroke="#2F323A" stroke-miterlimit="10" stroke-linecap="round" stroke-linejoin="round"/>
<path d="M120.801 268.32V388.793" stroke="#2F323A" stroke-miterlimit="10" stroke-linecap="round" stroke-linejoin="round"/>
<path d="M141.965 268.32V388.793" stroke="#2F323A" stroke-miterlimit="10" stroke-linecap="round" stroke-linejoin="round"/>
<path d="M163.129 268.32V388.793" stroke="#2F323A" stroke-miterlimit="10" stroke-linecap="round" stroke-linejoin="round"/>
<path d="M184.294 268.32V388.793" stroke="#2F323A" stroke-miterlimit="10" stroke-linecap="round" stroke-linejoin="round"/>
<path d="M205.662 268.32V388.793" stroke="#2F323A" stroke-miterlimit="10" stroke-linecap="round" stroke-linejoin="round"/>
<path d="M226.826 268.32V388.793" stroke="#2F323A" stroke-miterlimit="10" stroke-linecap="round" stroke-linejoin="round"/>
<path d="M247.989 268.32V388.793" stroke="#2F323A" stroke-miterlimit="10" stroke-linecap="round" stroke-linejoin="round"/>
<path d="M269.153 355.419V268.524V268.32" stroke="#2F323A" stroke-miterlimit="10" stroke-linecap="round" stroke-linejoin="round"/>
<path d="M287.061 291.519H103.503" stroke="#2F323A" stroke-miterlimit="10" stroke-linecap="round" stroke-linejoin="round"/>
<path d="M281.363 311.869H103.503" stroke="#2F323A" stroke-miterlimit="10" stroke-linecap="round" stroke-linejoin="round"/>
<path d="M274.851 332.83H103.503" stroke="#2F323A" stroke-miterlimit="10" stroke-linecap="round" stroke-linejoin="round"/>
<path d="M269.153 353.791H103.503" stroke="#2F323A" stroke-miterlimit="10" stroke-linecap="round" stroke-linejoin="round"/>
<path d="M264.473 372.106H103.503" stroke="#2F323A" stroke-miterlimit="10" stroke-linecap="round" stroke-linejoin="round"/>
<path d="M629.148 483.014H47.9485" stroke="#2F323A" stroke-miterlimit="10" stroke-linecap="round" stroke-linejoin="round"/>
</svg>
